<svg xmlns="http://www.w3.org/2000/svg" xmlns:xlink="http://www.w3.org/1999/xlink" width="200" zoomAndPan="magnify" viewBox="0 0 150 149.999998" height="200" preserveAspectRatio="xMidYMid meet" version="1.0"><defs><clipPath id="2588cf11da"><path d="M 45 49 L 104 49 L 104 102.367188 L 45 102.367188 Z M 45 49 " clip-rule="nonzero"/></clipPath><clipPath id="8eb616077b"><path d="M 66 55.367188 L 88 55.367188 L 88 91 L 66 91 Z M 66 55.367188 " clip-rule="nonzero"/></clipPath><clipPath id="126682c7de"><path d="M 61.898438 55.367188 L 88.148438 55.367188 L 88.148438 94.367188 L 61.898438 94.367188 Z M 61.898438 55.367188 " clip-rule="nonzero"/></clipPath></defs><g clip-path="url(#2588cf11da)"><path fill="#1800ad" d="M 68.425781 50.273438 C 73.46875 49.507812 87.808594 47.640625 96.839844 56.753906 C 104.695312 64.679688 104.996094 77.597656 100.953125 86.804688 C 98.769531 91.78125 96.042969 94.179688 94.910156 95.164062 C 91.890625 97.789062 88.925781 99.242188 87.023438 100.035156 C 85.992188 100.464844 84.796875 100.832031 84.597656 100.890625 C 79.800781 102.359375 75.800781 102.316406 74.128906 102.261719 C 67 102.027344 61.980469 99.652344 60.34375 98.835938 C 54.808594 96.089844 51.933594 92.652344 51.023438 91.53125 C 49.238281 89.335938 48.214844 87.320312 47.636719 85.992188 C 47.621094 85.960938 47.246094 85.097656 46.882812 83.921875 C 46.28125 81.988281 44.996094 77.089844 46.648438 70.417969 C 48.789062 61.769531 56.507812 54.269531 66.878906 51.886719 C 72.972656 50.488281 80.070312 50.886719 86.699219 54.4375 C 85.15625 53.773438 77.945312 50.546875 68.515625 53.027344 C 67.308594 53.34375 62.09375 54.722656 57.253906 58.976562 C 51.628906 63.917969 50.445312 69.285156 50.128906 70.769531 C 49.429688 74.058594 49.640625 76.773438 49.679688 77.292969 C 49.960938 80.910156 51.097656 83.34375 51.679688 84.554688 C 52.34375 85.941406 53.832031 88.660156 57.097656 91.441406 C 63.609375 96.984375 71.550781 97.648438 72.699219 97.753906 C 78.785156 98.3125 83.300781 96.839844 84.207031 96.546875 C 84.691406 96.390625 85.824219 96 86.863281 95.554688 C 87.371094 95.339844 90.488281 94.039062 93.488281 91.367188 C 97.140625 88.113281 99.707031 82.507812 100.527344 76.808594 C 101.734375 68.414062 99.3125 59.171875 90.898438 54.035156 C 82.863281 49.128906 72.535156 49.898438 68.425781 50.269531 Z M 68.425781 50.273438 " fill-opacity="1" fill-rule="evenodd"/></g><g clip-path="url(#8eb616077b)"><path fill="#ef9645" d="M 66.28125 60.746094 C 66.28125 59.269531 67.488281 58.074219 68.972656 58.074219 L 69.050781 58.074219 C 70.539062 58.074219 71.746094 59.269531 71.746094 60.746094 L 71.746094 58.40625 C 71.746094 57.027344 72.871094 55.90625 74.265625 55.90625 L 74.691406 55.90625 C 76.082031 55.90625 77.210938 57.027344 77.210938 58.40625 L 77.210938 59.699219 C 77.210938 58.203125 78.433594 56.992188 79.941406 56.992188 C 81.453125 56.992188 82.675781 58.203125 82.675781 59.699219 L 82.675781 69.824219 C 82.675781 68.71875 83.578125 67.824219 84.691406 67.824219 L 85.027344 67.824219 C 86.144531 67.824219 87.046875 68.71875 87.046875 69.824219 L 87.046875 80.449219 C 87.046875 81.554688 86.140625 82.449219 85.027344 82.449219 L 84.859375 82.449219 L 84.859375 83.53125 L 82.511719 83.53125 C 81.75 87.242188 78.445312 90.03125 74.476562 90.03125 C 69.949219 90.03125 66.28125 86.394531 66.28125 81.90625 L 66.28125 75.40625 C 66.28125 75.171875 66.296875 74.941406 66.316406 74.710938 C 66.300781 74.59375 66.28125 74.484375 66.28125 74.363281 Z M 66.28125 60.746094 " fill-opacity="1" fill-rule="nonzero"/></g><g clip-path="url(#126682c7de)"><path fill="#ffdc5d" d="M 61.910156 64.03125 C 61.910156 64.03125 61.910156 61.867188 64.09375 61.867188 C 66.28125 61.867188 66.28125 64.03125 66.28125 64.03125 L 66.28125 74.09375 C 66.28125 73.933594 67.375 73.789062 67.375 73.660156 L 67.375 59.699219 C 67.375 59.699219 67.375 57.53125 69.558594 57.53125 C 71.746094 57.53125 71.746094 59.699219 71.746094 59.699219 L 71.746094 72.832031 C 71.746094 72.800781 72.835938 72.773438 72.835938 72.757812 L 72.835938 57.53125 C 72.835938 57.53125 72.835938 55.367188 75.023438 55.367188 C 77.210938 55.367188 77.210938 57.53125 77.210938 57.53125 L 77.210938 72.753906 C 77.210938 72.773438 78.300781 72.8125 78.300781 72.84375 L 78.300781 58.617188 C 78.300781 58.617188 78.300781 56.449219 80.488281 56.449219 C 82.675781 56.449219 82.675781 58.617188 82.675781 58.617188 L 82.675781 75.949219 C 76.117188 75.949219 71.746094 81.367188 71.746094 86.78125 C 71.746094 87.867188 72.835938 87.867188 72.835938 87.867188 C 72.835938 81.367188 77.210938 77.03125 83.765625 77.03125 L 83.765625 69.449219 C 83.765625 69.449219 83.765625 67.28125 85.953125 67.28125 C 88.140625 67.28125 88.140625 69.449219 88.140625 69.449219 L 88.140625 81.367188 C 88.140625 88.546875 82.265625 94.367188 75.023438 94.367188 C 67.78125 94.367188 61.910156 88.546875 61.910156 81.367188 Z M 61.910156 64.03125 " fill-opacity="1" fill-rule="nonzero"/></g></svg>