<svg xmlns="http://www.w3.org/2000/svg" xmlns:xlink="http://www.w3.org/1999/xlink" width="200" zoomAndPan="magnify" viewBox="0 0 150 149.999998" height="200" preserveAspectRatio="xMidYMid meet" version="1.0"><defs><clipPath id="ddf11cbb68"><path d="M 45 49 L 104 49 L 104 102.367188 L 45 102.367188 Z M 45 49 " clip-rule="nonzero"/></clipPath><clipPath id="c8681fbeb3"><path d="M 57.109375 57 L 90 57 L 90 83 L 57.109375 83 Z M 57.109375 57 " clip-rule="nonzero"/></clipPath><clipPath id="57a881cfc4"><path d="M 57.109375 66 L 93.109375 66 L 93.109375 93.320312 L 57.109375 93.320312 Z M 57.109375 66 " clip-rule="nonzero"/></clipPath><clipPath id="fdf4c2d216"><path d="M 57.109375 56.570312 L 86 56.570312 L 86 75 L 57.109375 75 Z M 57.109375 56.570312 " clip-rule="nonzero"/></clipPath></defs><g clip-path="url(#ddf11cbb68)"><path fill="#1800ad" d="M 68.425781 50.273438 C 73.46875 49.507812 87.808594 47.640625 96.839844 56.753906 C 104.695312 64.679688 104.996094 77.597656 100.953125 86.804688 C 98.769531 91.78125 96.042969 94.179688 94.910156 95.164062 C 91.890625 97.789062 88.925781 99.242188 87.023438 100.035156 C 85.992188 100.464844 84.796875 100.832031 84.597656 100.890625 C 79.800781 102.359375 75.800781 102.316406 74.128906 102.261719 C 67 102.027344 61.980469 99.652344 60.34375 98.835938 C 54.808594 96.089844 51.933594 92.652344 51.023438 91.53125 C 49.238281 89.335938 48.214844 87.320312 47.636719 85.992188 C 47.621094 85.960938 47.246094 85.097656 46.882812 83.921875 C 46.28125 81.988281 44.996094 77.089844 46.648438 70.417969 C 48.789062 61.769531 56.507812 54.269531 66.878906 51.886719 C 72.972656 50.488281 80.070312 50.886719 86.699219 54.4375 C 85.15625 53.773438 77.945312 50.546875 68.515625 53.027344 C 67.308594 53.34375 62.09375 54.722656 57.253906 58.976562 C 51.628906 63.917969 50.445312 69.285156 50.128906 70.769531 C 49.429688 74.058594 49.640625 76.773438 49.679688 77.292969 C 49.960938 80.910156 51.097656 83.34375 51.679688 84.554688 C 52.34375 85.941406 53.832031 88.660156 57.097656 91.441406 C 63.609375 96.984375 71.550781 97.648438 72.699219 97.753906 C 78.785156 98.3125 83.300781 96.839844 84.207031 96.546875 C 84.691406 96.390625 85.824219 96 86.863281 95.554688 C 87.371094 95.339844 90.488281 94.039062 93.488281 91.367188 C 97.140625 88.113281 99.707031 82.507812 100.527344 76.808594 C 101.734375 68.414062 99.3125 59.171875 90.898438 54.035156 C 82.863281 49.128906 72.535156 49.898438 68.425781 50.269531 Z M 68.425781 50.273438 " fill-opacity="1" fill-rule="evenodd"/></g><g clip-path="url(#c8681fbeb3)"><path fill="#ef9645" d="M 74.898438 66.273438 L 80.136719 66.226562 L 86.433594 66.226562 C 87.453125 66.226562 88.804688 66.183594 89.777344 67.128906 C 88.929688 65.898438 87.503906 65.089844 85.886719 65.089844 L 85.363281 65.089844 L 85.109375 64.992188 L 79.1875 64.992188 L 79.207031 60.84375 C 79.207031 60.003906 79.761719 59.207031 79.972656 58.773438 C 78.828125 59.386719 78.039062 60.574219 78.039062 61.957031 L 77.945312 62.238281 L 77.945312 64.992188 L 74.898438 65.007812 C 73.640625 65.007812 72.613281 65.453125 71.847656 66.320312 L 71.832031 64.894531 L 71.847656 59.890625 C 71.847656 59.101562 72.273438 58.398438 72.546875 57.863281 C 71.457031 58.582031 70.710938 59.90625 70.710938 61.4375 L 70.710938 61.980469 L 70.523438 62.992188 L 70.554688 71.3125 C 70.554688 72.238281 70.121094 72.945312 69.476562 73.515625 C 68.921875 74.003906 68.375 74.195312 67.574219 74.195312 C 65.839844 74.195312 64.554688 72.867188 64.554688 71.148438 L 64.539062 61.734375 C 64.539062 60.890625 65.011719 60.292969 65.328125 59.804688 C 64.179688 60.417969 63.386719 61.609375 63.386719 62.992188 L 63.386719 64.949219 L 63.3125 65.171875 L 63.3125 71.453125 C 63.3125 73.515625 61.332031 74.34375 60.351562 74.34375 C 58.550781 74.34375 57.109375 73.09375 57.109375 71.453125 L 57.109375 74.195312 C 57.109375 74.195312 57.300781 74.414062 57.308594 74.519531 C 58.234375 75.433594 59.566406 75.574219 60.433594 75.574219 C 62.101562 75.574219 63.242188 74.691406 63.925781 73.433594 C 64.636719 74.691406 65.925781 75.527344 67.511719 75.527344 C 69.097656 75.527344 71.367188 74.761719 71.757812 72.058594 C 71.90625 72.230469 72.289062 72.585938 72.46875 72.722656 C 73.203125 73.273438 74.125 73.484375 74.898438 73.484375 L 76.066406 73.453125 L 77.878906 73.453125 C 77.320312 73.730469 77.066406 74.023438 76.621094 74.425781 C 74.8125 76.050781 73.921875 78.671875 73.921875 82.382812 C 73.921875 82.667969 74.253906 82.964844 74.542969 82.964844 C 74.832031 82.964844 75.148438 82.636719 75.148438 82.347656 C 75.148438 78.238281 76.167969 75.785156 78.5 74.503906 C 79.730469 73.832031 81.25 73.5 83.226562 73.5 C 83.289062 73.5 83.816406 73.46875 83.816406 73.46875 C 84.105469 73.46875 84.4375 73.125 84.4375 72.835938 C 84.4375 72.550781 84.152344 72.269531 83.863281 72.269531 L 77.128906 72.269531 L 74.898438 72.253906 C 73.164062 72.253906 71.847656 70.925781 71.847656 69.207031 C 71.847656 67.488281 73.164062 66.273438 74.898438 66.273438 Z M 74.898438 66.273438 " fill-opacity="1" fill-rule="nonzero"/></g><g clip-path="url(#57a881cfc4)"><path fill="#ffdc5d" d="M 60.375 75.460938 C 61.917969 75.460938 63.242188 74.597656 63.925781 73.34375 C 64.636719 74.597656 65.976562 75.460938 67.53125 75.460938 L 67.613281 75.460938 C 68.820312 75.460938 69.882812 74.933594 70.636719 74.113281 C 70.660156 74.089844 70.6875 74.070312 70.710938 74.042969 L 70.710938 74.03125 C 70.90625 73.808594 71.070312 73.566406 71.214844 73.308594 C 71.257812 73.234375 71.289062 73.152344 71.324219 73.074219 C 71.421875 72.871094 71.507812 72.664062 71.574219 72.445312 C 71.625 72.265625 71.683594 72.089844 71.710938 71.898438 C 71.859375 72.074219 72.023438 72.230469 72.195312 72.375 C 72.265625 72.4375 72.347656 72.488281 72.425781 72.542969 C 72.546875 72.632812 72.664062 72.726562 72.796875 72.804688 C 73.414062 73.167969 74.125 73.386719 74.898438 73.386719 L 78.210938 73.386719 C 77.652344 73.664062 77.164062 74.023438 76.722656 74.421875 C 74.910156 76.046875 74.023438 78.660156 74.023438 82.371094 C 74.023438 82.65625 74.257812 82.886719 74.546875 82.886719 C 74.835938 82.886719 75.070312 82.65625 75.070312 82.371094 C 75.070312 78.261719 76.125 75.703125 78.460938 74.421875 C 79.6875 73.746094 81.265625 73.417969 83.242188 73.417969 C 83.304688 73.417969 83.792969 73.386719 83.792969 73.386719 C 84.082031 73.386719 84.316406 73.152344 84.316406 72.867188 C 84.316406 72.582031 84.082031 72.347656 83.792969 72.347656 L 74.898438 72.347656 C 73.164062 72.347656 71.757812 70.957031 71.757812 69.238281 C 71.757812 67.519531 73.164062 66.125 74.898438 66.125 L 86.410156 66.125 C 87.429688 66.125 88.804688 66.183594 89.777344 67.128906 C 90.117188 67.457031 90.410156 67.890625 90.617188 68.472656 L 92.355469 74.148438 C 92.515625 74.679688 93.117188 77.113281 93.007812 77.617188 C 93.007812 85.230469 83.90625 93.144531 73.121094 93.144531 C 62.679688 93.148438 57.109375 84.730469 57.109375 74.433594 L 57.109375 74.199219 C 57.117188 74.207031 57.128906 74.214844 57.140625 74.222656 C 58.0625 75.140625 59.023438 75.460938 60.117188 75.460938 Z M 60.375 75.460938 " fill-opacity="1" fill-rule="nonzero"/></g><g clip-path="url(#fdf4c2d216)"><path fill="#ffdc5d" d="M 60.105469 61.980469 L 60.386719 61.980469 C 62.042969 61.980469 63.386719 63.308594 63.386719 64.949219 L 63.386719 71.453125 C 63.386719 73.09375 62.042969 74.425781 60.390625 74.425781 L 60.105469 74.425781 C 58.449219 74.421875 57.109375 73.09375 57.109375 71.453125 L 57.109375 64.949219 C 57.109375 63.308594 58.449219 61.980469 60.105469 61.980469 Z M 70.710938 65.375 L 70.710938 71.3125 C 70.710938 72.238281 70.296875 73.058594 69.652344 73.628906 C 69.097656 74.117188 68.375 74.421875 67.574219 74.421875 C 65.839844 74.421875 64.433594 73.03125 64.433594 71.3125 L 64.433594 61.980469 C 64.433594 61.132812 64.777344 60.367188 65.328125 59.804688 C 65.898438 59.230469 66.691406 58.867188 67.574219 58.867188 C 69.308594 58.867188 70.710938 60.261719 70.710938 61.980469 Z M 74.898438 65.089844 C 73.640625 65.089844 72.527344 65.652344 71.757812 66.519531 L 71.757812 59.90625 C 71.757812 59.121094 72.0625 58.410156 72.546875 57.863281 C 73.121094 57.210938 73.957031 56.792969 74.898438 56.792969 C 76.632812 56.792969 78.039062 58.1875 78.039062 59.90625 L 78.039062 65.089844 Z M 79.085938 60.933594 C 79.085938 60.09375 79.425781 59.332031 79.972656 58.773438 C 80.542969 58.191406 81.335938 57.828125 82.214844 57.828125 L 82.230469 57.828125 C 83.960938 57.832031 85.363281 59.21875 85.363281 60.933594 L 85.363281 65.089844 L 79.085938 65.089844 Z M 79.085938 60.933594 " fill-opacity="1" fill-rule="nonzero"/></g></svg>